<svg xmlns="http://www.w3.org/2000/svg" xmlns:xlink="http://www.w3.org/1999/xlink" width="500" zoomAndPan="magnify" viewBox="0 0 375 374.999991" height="500" preserveAspectRatio="xMidYMid meet" version="1.0"><defs><clipPath id="id1"><path d="M 7.734375 0 L 366.984375 0 L 366.984375 375 L 7.734375 375 Z M 7.734375 0 " clip-rule="nonzero"/></clipPath></defs><g clip-path="url(#id1)"><path fill="#001420" d="M 365.945312 269.835938 C 350.304688 301.527344 325.988281 328.125 296.113281 346.703125 C 267.183594 364.625 233.066406 375 196.6875 375 C 144.480469 375 97.265625 353.871094 63.054688 319.636719 C 28.84375 285.398438 7.734375 238.148438 7.734375 185.898438 C 7.734375 140.90625 23.472656 99.503906 49.859375 66.964844 C 76.625 33.859375 114.414062 9.996094 157.671875 0.945312 C 161.914062 0 166.058594 2.734375 166.910156 6.980469 C 167.285156 8.773438 167.003906 10.5625 166.25 12.074219 C 160.40625 23.863281 155.882812 36.3125 152.867188 49.421875 C 149.851562 62.15625 148.34375 75.359375 148.34375 89.035156 C 148.34375 136.945312 167.664062 180.238281 199.042969 211.644531 C 230.425781 242.957031 273.683594 262.386719 321.558594 262.386719 C 327.78125 262.386719 333.714844 262.105469 339.558594 261.445312 C 345.589844 260.878906 351.527344 259.933594 357.371094 258.707031 C 361.613281 257.765625 365.757812 260.5 366.605469 264.746094 C 366.984375 266.535156 366.703125 268.328125 365.945312 269.835938 Z M 287.820312 333.40625 C 310.722656 319.164062 330.136719 299.734375 344.273438 276.722656 L 341.160156 277.101562 C 334.566406 277.761719 328.0625 278.136719 321.558594 278.136719 C 269.347656 278.136719 222.132812 256.917969 187.925781 222.773438 C 153.714844 188.539062 132.605469 141.285156 132.605469 89.035156 C 132.605469 74.226562 134.300781 59.796875 137.597656 45.933594 C 139.578125 37.066406 142.3125 28.578125 145.515625 20.277344 C 112.34375 30.464844 83.410156 50.460938 62.015625 76.867188 C 37.890625 106.578125 23.472656 144.585938 23.472656 185.898438 C 23.472656 233.808594 42.792969 277.101562 74.175781 308.507812 C 105.558594 339.914062 148.8125 359.25 196.6875 359.25 C 230.144531 359.25 261.433594 349.816406 287.820312 333.40625 Z M 287.820312 333.40625 " fill-opacity="1" fill-rule="nonzero"/></g></svg>