<svg xmlns="http://www.w3.org/2000/svg" xmlns:xlink="http://www.w3.org/1999/xlink" width="500" zoomAndPan="magnify" viewBox="0 0 375 374.999991" height="500" preserveAspectRatio="xMidYMid meet" version="1.0"><path fill="#f4f5f6" d="M 188.625 124.703125 C 150.179688 124.703125 118.898438 155.984375 118.898438 194.429688 C 118.898438 232.878906 150.179688 264.160156 188.625 264.160156 C 227.070312 264.160156 258.351562 232.878906 258.351562 194.429688 C 258.351562 155.984375 227.070312 124.703125 188.625 124.703125 Z M 188.625 273.777344 C 144.871094 273.777344 109.28125 238.1875 109.28125 194.429688 C 109.28125 150.675781 144.871094 115.085938 188.625 115.085938 C 232.363281 115.085938 267.96875 150.675781 267.96875 194.429688 C 267.96875 238.1875 232.363281 273.777344 188.625 273.777344 " fill-opacity="1" fill-rule="nonzero"/><path fill="#f4f5f6" d="M 228.613281 199.242188 C 225.964844 199.242188 223.804688 197.09375 223.804688 194.429688 C 223.804688 175.03125 208.023438 159.25 188.625 159.25 C 185.964844 159.25 183.816406 157.089844 183.816406 154.441406 C 183.816406 151.78125 185.964844 149.632812 188.625 149.632812 C 213.316406 149.632812 233.421875 169.722656 233.421875 194.429688 C 233.421875 197.09375 231.273438 199.242188 228.613281 199.242188 " fill-opacity="1" fill-rule="nonzero"/><path fill="#f4f5f6" d="M 188.625 93.789062 C 185.964844 93.789062 183.816406 91.640625 183.816406 88.980469 L 183.816406 8.160156 C 183.816406 5.5 185.964844 3.335938 188.625 3.335938 C 191.273438 3.335938 193.433594 5.5 193.433594 8.160156 L 193.433594 88.980469 C 193.433594 91.640625 191.273438 93.789062 188.625 93.789062 " fill-opacity="1" fill-rule="nonzero"/><path fill="#f4f5f6" d="M 224.6875 100.15625 C 224.140625 100.15625 223.582031 100.054688 223.039062 99.863281 C 220.554688 98.949219 219.257812 96.199219 220.171875 93.699219 L 235.703125 51.046875 C 236.597656 48.546875 239.378906 47.269531 241.863281 48.164062 C 244.347656 49.078125 245.644531 51.84375 244.730469 54.328125 L 229.203125 96.996094 C 228.496094 98.949219 226.65625 100.15625 224.6875 100.15625 " fill-opacity="1" fill-rule="nonzero"/><path fill="#f4f5f6" d="M 120.855469 118.46875 C 119.472656 118.46875 118.121094 117.878906 117.164062 116.746094 L 65.203125 54.828125 C 63.5 52.785156 63.761719 49.753906 65.808594 48.046875 C 67.835938 46.339844 70.867188 46.605469 72.574219 48.652344 L 124.53125 110.570312 C 126.238281 112.597656 125.972656 115.628906 123.945312 117.335938 C 123.046875 118.097656 121.945312 118.46875 120.855469 118.46875 " fill-opacity="1" fill-rule="nonzero"/><path fill="#f4f5f6" d="M 152.5625 100.15625 C 150.59375 100.15625 148.753906 98.949219 148.046875 96.996094 L 132.519531 54.328125 C 131.605469 51.84375 132.902344 49.078125 135.386719 48.164062 C 137.886719 47.269531 140.652344 48.546875 141.546875 51.046875 L 157.078125 93.699219 C 157.992188 96.199219 156.695312 98.949219 154.210938 99.863281 C 153.667969 100.054688 153.109375 100.15625 152.5625 100.15625 " fill-opacity="1" fill-rule="nonzero"/><path fill="#f4f5f6" d="M 84.792969 180.929688 C 84.515625 180.929688 84.234375 180.902344 83.957031 180.855469 L 4.347656 166.824219 C 1.730469 166.355469 -0.0078125 163.871094 0.449219 161.25 C 0.90625 158.632812 3.390625 156.882812 6.023438 157.355469 L 85.617188 171.386719 C 88.234375 171.839844 89.984375 174.339844 89.53125 176.957031 C 89.117188 179.28125 87.089844 180.929688 84.792969 180.929688 " fill-opacity="1" fill-rule="nonzero"/><path fill="#f4f5f6" d="M 97.308594 146.515625 C 96.484375 146.515625 95.664062 146.308594 94.898438 145.867188 L 55.601562 123.171875 C 53.292969 121.851562 52.511719 118.910156 53.835938 116.613281 C 55.160156 114.304688 58.117188 113.527344 60.410156 114.847656 L 99.707031 137.542969 C 102.015625 138.867188 102.796875 141.808594 101.472656 144.117188 C 100.589844 145.660156 98.957031 146.515625 97.308594 146.515625 " fill-opacity="1" fill-rule="nonzero"/><path fill="#f4f5f6" d="M 27.320312 292.382812 C 25.65625 292.382812 24.039062 291.515625 23.144531 289.972656 C 21.820312 287.675781 22.613281 284.734375 24.90625 283.398438 L 94.898438 242.996094 C 97.207031 241.65625 100.148438 242.4375 101.472656 244.746094 C 102.796875 247.054688 102.015625 249.980469 99.707031 251.320312 L 29.714844 291.738281 C 28.964844 292.175781 28.128906 292.382812 27.320312 292.382812 " fill-opacity="1" fill-rule="nonzero"/><path fill="#f4f5f6" d="M 40.070312 225.433594 C 37.789062 225.433594 35.761719 223.789062 35.347656 221.464844 C 34.894531 218.847656 36.628906 216.347656 39.246094 215.890625 L 83.957031 208.007812 C 86.542969 207.550781 89.058594 209.285156 89.53125 211.902344 C 89.984375 214.523438 88.234375 217.007812 85.617188 217.476562 L 40.921875 225.363281 C 40.644531 225.40625 40.351562 225.433594 40.070312 225.433594 " fill-opacity="1" fill-rule="nonzero"/><path fill="#f4f5f6" d="M 124.914062 374.289062 C 124.371094 374.289062 123.8125 374.1875 123.265625 373.996094 C 120.78125 373.082031 119.488281 370.320312 120.398438 367.832031 L 148.046875 291.867188 C 148.945312 289.367188 151.726562 288.074219 154.210938 289 C 156.695312 289.914062 157.992188 292.664062 157.078125 295.164062 L 129.429688 371.113281 C 128.722656 373.070312 126.871094 374.289062 124.914062 374.289062 " fill-opacity="1" fill-rule="nonzero"/><path fill="#f4f5f6" d="M 91.664062 314.78125 C 90.574219 314.78125 89.484375 314.414062 88.574219 313.664062 C 86.542969 311.960938 86.28125 308.929688 87.984375 306.886719 L 117.164062 272.117188 C 118.871094 270.085938 121.914062 269.820312 123.945312 271.527344 C 125.972656 273.234375 126.238281 276.265625 124.53125 278.292969 L 95.355469 313.078125 C 94.398438 314.210938 93.042969 314.78125 91.664062 314.78125 " fill-opacity="1" fill-rule="nonzero"/><path fill="#f4f5f6" d="M 252.335938 374.289062 C 250.363281 374.289062 248.527344 373.070312 247.820312 371.113281 L 220.171875 295.164062 C 219.257812 292.664062 220.554688 289.914062 223.039062 289 C 225.539062 288.089844 228.304688 289.382812 229.203125 291.867188 L 256.851562 367.832031 C 257.761719 370.320312 256.46875 373.082031 253.96875 373.996094 C 253.4375 374.1875 252.878906 374.289062 252.335938 374.289062 " fill-opacity="1" fill-rule="nonzero"/><path fill="#f4f5f6" d="M 188.625 350.082031 C 185.964844 350.082031 183.816406 347.917969 183.816406 345.273438 L 183.816406 299.871094 C 183.816406 297.222656 185.964844 295.074219 188.625 295.074219 C 191.273438 295.074219 193.433594 297.222656 193.433594 299.871094 L 193.433594 345.273438 C 193.433594 347.917969 191.273438 350.082031 188.625 350.082031 " fill-opacity="1" fill-rule="nonzero"/><path fill="#f4f5f6" d="M 349.929688 292.382812 C 349.121094 292.382812 348.285156 292.175781 347.535156 291.738281 L 277.542969 251.320312 C 275.234375 249.980469 274.453125 247.054688 275.777344 244.746094 C 277.101562 242.4375 280.042969 241.65625 282.351562 242.996094 L 352.34375 283.398438 C 354.636719 284.734375 355.429688 287.675781 354.105469 289.972656 C 353.210938 291.515625 351.59375 292.382812 349.929688 292.382812 " fill-opacity="1" fill-rule="nonzero"/><path fill="#f4f5f6" d="M 285.585938 314.78125 C 284.207031 314.78125 282.851562 314.210938 281.894531 313.078125 L 252.71875 278.292969 C 251.011719 276.265625 251.277344 273.234375 253.304688 271.527344 C 255.351562 269.820312 258.378906 270.085938 260.085938 272.117188 L 289.265625 306.886719 C 290.96875 308.929688 290.707031 311.960938 288.675781 313.664062 C 287.765625 314.414062 286.675781 314.78125 285.585938 314.78125 " fill-opacity="1" fill-rule="nonzero"/><path fill="#f4f5f6" d="M 292.457031 180.929688 C 290.160156 180.929688 288.132812 179.28125 287.71875 176.957031 C 287.265625 174.339844 289.015625 171.839844 291.632812 171.386719 L 371.226562 157.355469 C 373.828125 156.882812 376.328125 158.632812 376.800781 161.25 C 377.257812 163.871094 375.519531 166.355469 372.902344 166.824219 L 293.292969 180.855469 C 293.015625 180.902344 292.734375 180.929688 292.457031 180.929688 " fill-opacity="1" fill-rule="nonzero"/><path fill="#f4f5f6" d="M 337.179688 225.433594 C 336.898438 225.433594 336.621094 225.40625 336.328125 225.363281 L 291.632812 217.476562 C 289.015625 217.007812 287.265625 214.523438 287.71875 211.902344 C 288.191406 209.285156 290.675781 207.550781 293.292969 208.007812 L 338.003906 215.890625 C 340.621094 216.347656 342.355469 218.847656 341.902344 221.464844 C 341.488281 223.789062 339.460938 225.433594 337.179688 225.433594 " fill-opacity="1" fill-rule="nonzero"/><path fill="#f4f5f6" d="M 256.394531 118.46875 C 255.304688 118.46875 254.203125 118.097656 253.304688 117.335938 C 251.277344 115.628906 251.011719 112.597656 252.71875 110.570312 L 304.675781 48.652344 C 306.367188 46.605469 309.414062 46.339844 311.441406 48.046875 C 313.488281 49.753906 313.75 52.785156 312.046875 54.828125 L 260.085938 116.746094 C 259.128906 117.878906 257.777344 118.46875 256.394531 118.46875 " fill-opacity="1" fill-rule="nonzero"/><path fill="#f4f5f6" d="M 279.941406 146.515625 C 278.292969 146.515625 276.660156 145.660156 275.777344 144.117188 C 274.453125 141.808594 275.234375 138.867188 277.542969 137.542969 L 316.839844 114.847656 C 319.148438 113.527344 322.089844 114.304688 323.414062 116.613281 C 324.738281 118.910156 323.957031 121.851562 321.648438 123.171875 L 282.351562 145.867188 C 281.585938 146.308594 280.765625 146.515625 279.941406 146.515625 " fill-opacity="1" fill-rule="nonzero"/></svg>