<svg xmlns="http://www.w3.org/2000/svg" xmlns:xlink="http://www.w3.org/1999/xlink" width="500" zoomAndPan="magnify" viewBox="0 0 375 374.999991" height="500" preserveAspectRatio="xMidYMid meet" version="1.0"><path fill="#001420" d="M 186.730469 122.828125 C 148.289062 122.828125 117.003906 154.109375 117.003906 192.554688 C 117.003906 231.003906 148.289062 262.285156 186.730469 262.285156 C 225.175781 262.285156 256.457031 231.003906 256.457031 192.554688 C 256.457031 154.109375 225.175781 122.828125 186.730469 122.828125 Z M 186.730469 271.902344 C 142.976562 271.902344 107.386719 236.3125 107.386719 192.554688 C 107.386719 148.800781 142.976562 113.210938 186.730469 113.210938 C 230.46875 113.210938 266.074219 148.800781 266.074219 192.554688 C 266.074219 236.3125 230.46875 271.902344 186.730469 271.902344 " fill-opacity="1" fill-rule="nonzero"/><path fill="#001420" d="M 226.71875 197.367188 C 224.070312 197.367188 221.910156 195.21875 221.910156 192.554688 C 221.910156 173.15625 206.128906 157.375 186.730469 157.375 C 184.070312 157.375 181.921875 155.214844 181.921875 152.566406 C 181.921875 149.90625 184.070312 147.757812 186.730469 147.757812 C 211.425781 147.757812 231.527344 167.847656 231.527344 192.554688 C 231.527344 195.21875 229.382812 197.367188 226.71875 197.367188 " fill-opacity="1" fill-rule="nonzero"/><path fill="#001420" d="M 186.730469 91.914062 C 184.070312 91.914062 181.921875 89.765625 181.921875 87.105469 L 181.921875 6.285156 C 181.921875 3.625 184.070312 1.460938 186.730469 1.460938 C 189.378906 1.460938 191.539062 3.625 191.539062 6.285156 L 191.539062 87.105469 C 191.539062 89.765625 189.378906 91.914062 186.730469 91.914062 " fill-opacity="1" fill-rule="nonzero"/><path fill="#001420" d="M 222.792969 98.28125 C 222.25 98.28125 221.6875 98.179688 221.144531 97.988281 C 218.660156 97.074219 217.367188 94.324219 218.277344 91.824219 L 233.808594 49.171875 C 234.703125 46.671875 237.484375 45.394531 239.96875 46.289062 C 242.457031 47.203125 243.75 49.96875 242.839844 52.453125 L 227.308594 95.121094 C 226.601562 97.074219 224.761719 98.28125 222.792969 98.28125 " fill-opacity="1" fill-rule="nonzero"/><path fill="#001420" d="M 118.960938 116.59375 C 117.578125 116.59375 116.226562 116.003906 115.269531 114.871094 L 63.3125 52.953125 C 61.605469 50.910156 61.871094 47.878906 63.914062 46.171875 C 65.941406 44.464844 68.972656 44.730469 70.679688 46.777344 L 122.636719 108.695312 C 124.34375 110.722656 124.078125 113.753906 122.050781 115.460938 C 121.152344 116.222656 120.050781 116.59375 118.960938 116.59375 " fill-opacity="1" fill-rule="nonzero"/><path fill="#001420" d="M 150.667969 98.28125 C 148.699219 98.28125 146.859375 97.074219 146.15625 95.121094 L 130.625 52.453125 C 129.710938 49.96875 131.007812 47.203125 133.492188 46.289062 C 135.992188 45.394531 138.757812 46.671875 139.652344 49.171875 L 155.183594 91.824219 C 156.097656 94.324219 154.800781 97.074219 152.316406 97.988281 C 151.773438 98.179688 151.214844 98.28125 150.667969 98.28125 " fill-opacity="1" fill-rule="nonzero"/><path fill="#001420" d="M 82.898438 179.054688 C 82.621094 179.054688 82.339844 179.027344 82.0625 178.980469 L 2.453125 164.949219 C -0.164062 164.480469 -1.898438 161.996094 -1.445312 159.375 C -0.988281 156.757812 1.496094 155.007812 4.128906 155.480469 L 83.722656 169.511719 C 86.339844 169.964844 88.089844 172.464844 87.636719 175.082031 C 87.222656 177.40625 85.195312 179.054688 82.898438 179.054688 " fill-opacity="1" fill-rule="nonzero"/><path fill="#001420" d="M 95.414062 144.640625 C 94.59375 144.640625 93.769531 144.433594 93.003906 143.992188 L 53.707031 121.296875 C 51.398438 119.976562 50.617188 117.035156 51.941406 114.738281 C 53.265625 112.429688 56.222656 111.652344 58.515625 112.972656 L 97.8125 135.667969 C 100.121094 136.992188 100.902344 139.933594 99.578125 142.242188 C 98.695312 143.785156 97.0625 144.640625 95.414062 144.640625 " fill-opacity="1" fill-rule="nonzero"/><path fill="#001420" d="M 25.425781 290.507812 C 23.765625 290.507812 22.144531 289.640625 21.25 288.097656 C 19.925781 285.800781 20.71875 282.859375 23.015625 281.523438 L 93.003906 241.121094 C 95.3125 239.78125 98.253906 240.5625 99.578125 242.871094 C 100.902344 245.179688 100.121094 248.105469 97.8125 249.445312 L 27.824219 289.863281 C 27.074219 290.300781 26.234375 290.507812 25.425781 290.507812 " fill-opacity="1" fill-rule="nonzero"/><path fill="#001420" d="M 38.175781 223.558594 C 35.898438 223.558594 33.867188 221.914062 33.457031 219.589844 C 33 216.972656 34.734375 214.472656 37.351562 214.015625 L 82.0625 206.132812 C 84.648438 205.675781 87.164062 207.410156 87.636719 210.027344 C 88.089844 212.648438 86.339844 215.132812 83.722656 215.601562 L 39.03125 223.488281 C 38.75 223.53125 38.457031 223.558594 38.175781 223.558594 " fill-opacity="1" fill-rule="nonzero"/><path fill="#001420" d="M 123.019531 372.414062 C 122.476562 372.414062 121.917969 372.3125 121.375 372.121094 C 118.886719 371.207031 117.59375 368.445312 118.503906 365.957031 L 146.15625 289.992188 C 147.050781 287.492188 149.832031 286.199219 152.316406 287.125 C 154.800781 288.039062 156.097656 290.789062 155.183594 293.289062 L 127.535156 369.238281 C 126.828125 371.195312 124.976562 372.414062 123.019531 372.414062 " fill-opacity="1" fill-rule="nonzero"/><path fill="#001420" d="M 89.769531 312.90625 C 88.679688 312.90625 87.589844 312.539062 86.679688 311.789062 C 84.648438 310.085938 84.386719 307.054688 86.089844 305.011719 L 115.269531 270.242188 C 116.976562 268.210938 120.019531 267.945312 122.050781 269.652344 C 124.078125 271.359375 124.34375 274.390625 122.636719 276.417969 L 93.460938 311.203125 C 92.503906 312.335938 91.152344 312.90625 89.769531 312.90625 " fill-opacity="1" fill-rule="nonzero"/><path fill="#001420" d="M 250.441406 372.414062 C 248.46875 372.414062 246.632812 371.195312 245.925781 369.238281 L 218.277344 293.289062 C 217.367188 290.789062 218.660156 288.039062 221.144531 287.125 C 223.644531 286.214844 226.410156 287.507812 227.308594 289.992188 L 254.957031 365.957031 C 255.867188 368.445312 254.574219 371.207031 252.074219 372.121094 C 251.542969 372.3125 250.984375 372.414062 250.441406 372.414062 " fill-opacity="1" fill-rule="nonzero"/><path fill="#001420" d="M 186.730469 348.207031 C 184.070312 348.207031 181.921875 346.042969 181.921875 343.398438 L 181.921875 297.996094 C 181.921875 295.347656 184.070312 293.199219 186.730469 293.199219 C 189.378906 293.199219 191.539062 295.347656 191.539062 297.996094 L 191.539062 343.398438 C 191.539062 346.042969 189.378906 348.207031 186.730469 348.207031 " fill-opacity="1" fill-rule="nonzero"/><path fill="#001420" d="M 348.035156 290.507812 C 347.226562 290.507812 346.390625 290.300781 345.640625 289.863281 L 275.648438 249.445312 C 273.339844 248.105469 272.5625 245.179688 273.882812 242.871094 C 275.207031 240.5625 278.148438 239.78125 280.457031 241.121094 L 350.449219 281.523438 C 352.742188 282.859375 353.535156 285.800781 352.214844 288.097656 C 351.316406 289.640625 349.699219 290.507812 348.035156 290.507812 " fill-opacity="1" fill-rule="nonzero"/><path fill="#001420" d="M 283.695312 312.90625 C 282.3125 312.90625 280.957031 312.335938 280.003906 311.203125 L 250.824219 276.417969 C 249.117188 274.390625 249.382812 271.359375 251.410156 269.652344 C 253.457031 267.945312 256.484375 268.210938 258.191406 270.242188 L 287.371094 305.011719 C 289.078125 307.054688 288.8125 310.085938 286.78125 311.789062 C 285.871094 312.539062 284.78125 312.90625 283.695312 312.90625 " fill-opacity="1" fill-rule="nonzero"/><path fill="#001420" d="M 290.5625 179.054688 C 288.269531 179.054688 286.238281 177.40625 285.828125 175.082031 C 285.371094 172.464844 287.121094 169.964844 289.738281 169.511719 L 369.332031 155.480469 C 371.933594 155.007812 374.433594 156.757812 374.90625 159.375 C 375.363281 161.996094 373.625 164.480469 371.007812 164.949219 L 291.398438 178.980469 C 291.121094 179.027344 290.839844 179.054688 290.5625 179.054688 " fill-opacity="1" fill-rule="nonzero"/><path fill="#001420" d="M 335.285156 223.558594 C 335.007812 223.558594 334.726562 223.53125 334.433594 223.488281 L 289.738281 215.601562 C 287.121094 215.132812 285.371094 212.648438 285.828125 210.027344 C 286.296875 207.410156 288.78125 205.675781 291.398438 206.132812 L 336.109375 214.015625 C 338.726562 214.472656 340.460938 216.972656 340.007812 219.589844 C 339.59375 221.914062 337.566406 223.558594 335.285156 223.558594 " fill-opacity="1" fill-rule="nonzero"/><path fill="#001420" d="M 254.5 116.59375 C 253.414062 116.59375 252.308594 116.222656 251.410156 115.460938 C 249.382812 113.753906 249.117188 110.722656 250.824219 108.695312 L 302.785156 46.777344 C 304.476562 44.730469 307.519531 44.464844 309.546875 46.171875 C 311.59375 47.878906 311.859375 50.910156 310.152344 52.953125 L 258.191406 114.871094 C 257.234375 116.003906 255.882812 116.59375 254.5 116.59375 " fill-opacity="1" fill-rule="nonzero"/><path fill="#001420" d="M 278.046875 144.640625 C 276.398438 144.640625 274.765625 143.785156 273.882812 142.242188 C 272.5625 139.933594 273.339844 136.992188 275.648438 135.667969 L 314.945312 112.972656 C 317.253906 111.652344 320.195312 112.429688 321.519531 114.738281 C 322.84375 117.035156 322.0625 119.976562 319.753906 121.296875 L 280.457031 143.992188 C 279.695312 144.433594 278.871094 144.640625 278.046875 144.640625 " fill-opacity="1" fill-rule="nonzero"/></svg>